<svg width="740.8849853515625px" height="140.99750366210935px" xmlns="http://www.w3.org/2000/svg" viewBox="-120.44249267578124 4.501248168945324 740.8849853515625 140.99750366210935" style="background: none;" preserveAspectRatio="xMidYMid"><defs><linearGradient id="editing-gradient-gradient" x1="0" x2="1" y1="0.5" y2="0.5" gradientUnits="objectBoundingBox"><stop offset="0" stop-color="#ff5e00"></stop><stop offset="1" stop-color="#ff7100"></stop></linearGradient></defs><g><g transform="translate(-14.660020768642426, 100.07999992370605)"><path d="M0.42 1.14L0.42-3.72L0.42-3.72Q3.48-3.72 4.95-4.29L4.95-4.29L4.95-4.29Q6.42-4.86 6.96-6.39L6.96-6.39L6.96-6.39Q7.50-7.92 7.50-11.10L7.50-11.10L7.50-48.60L14.22-48.60L14.22-10.98L14.22-10.98Q14.22-6.60 13.32-3.99L13.32-3.99L13.32-3.99Q12.42-1.38 10.11-0.12L10.11-0.12L10.11-0.12Q7.80 1.14 3.66 1.14L3.66 1.14L0.42 1.14ZM34.38 0.54L34.38 0.54Q29.28 0.54 26.43-1.50L26.43-1.50L26.43-1.50Q23.58-3.54 22.50-7.20L22.50-7.20L22.50-7.20Q21.42-10.86 21.42-16.38L21.42-16.38L21.42-48.60L27.90-48.60L27.90-16.08L27.90-16.08Q27.90-10.56 29.19-7.68L29.19-7.68L29.19-7.68Q30.48-4.80 34.38-4.80L34.38-4.80L34.38-4.80Q38.28-4.80 39.57-7.68L39.57-7.68L39.57-7.68Q40.86-10.56 40.86-16.08L40.86-16.08L40.86-48.60L47.28-48.60L47.28-16.38L47.28-16.38Q47.28-10.86 46.20-7.20L46.20-7.20L46.20-7.20Q45.12-3.54 42.30-1.50L42.30-1.50L42.30-1.50Q39.48 0.54 34.38 0.54L34.38 0.54ZM51.78 0L62.10-48.60L68.64-48.60L79.02 0L72.60 0L70.38-12.24L60.48-12.24L58.14 0L51.78 0ZM61.38-17.10L69.48-17.10L65.40-39L61.38-17.10ZM83.94 0L83.94-48.60L90.72-48.60L90.72-4.86L103.14-4.86L103.14 0L83.94 0ZM121.50 0L121.50-48.60L132.66-48.60L132.66-48.60Q139.26-48.60 142.44-45.63L142.44-45.63L142.44-45.63Q145.62-42.66 145.62-36.42L145.62-36.42L145.62-36.42Q145.62-27.12 138.66-26.16L138.66-26.16L138.66-26.16Q142.98-25.14 144.96-22.11L144.96-22.11L144.96-22.11Q146.94-19.08 146.94-13.86L146.94-13.86L146.94-13.86Q146.94-7.32 143.85-3.66L143.85-3.66L143.85-3.66Q140.76 0 134.46 0L134.46 0L121.50 0ZM128.28-28.32L132.30-28.32L132.30-28.32Q136.50-28.32 138.12-30.15L138.12-30.15L138.12-30.15Q139.74-31.98 139.74-36.42L139.74-36.42L139.74-36.42Q139.74-39.66 138.75-41.19L138.75-41.19L138.75-41.19Q137.76-42.72 135.78-43.14L135.78-43.14L135.78-43.14Q133.80-43.56 129.90-43.56L129.90-43.56L128.28-43.56L128.28-28.32ZM128.28-4.86L132.84-4.86L132.84-4.86Q135.84-4.86 137.49-5.79L137.49-5.79L137.49-5.79Q139.14-6.72 139.80-8.64L139.80-8.64L139.80-8.64Q140.46-10.56 140.46-13.86L140.46-13.86L140.46-13.86Q140.46-18.54 138.54-20.85L138.54-20.85L138.54-20.85Q136.62-23.16 132.30-23.16L132.30-23.16L128.28-23.16L128.28-4.86ZM152.94 0L152.94-48.60L171.78-48.60L171.78-43.56L159.72-43.56L159.72-27.48L169.50-27.48L169.50-22.68L159.72-22.68L159.72-4.86L171.90-4.86L171.90 0L152.94 0ZM177.36 0L177.36-48.60L184.14-48.60L184.14-4.86L196.56-4.86L196.56 0L177.36 0ZM201.54 0L201.54-48.60L208.20-48.60L208.20 0L201.54 0ZM229.68 0L230.58-48.60L237.24-48.60L245.82-9.18L254.46-48.60L261.06-48.60L261.96 0L256.50 0L255.96-35.28L247.74 0L243.90 0L235.74-35.28L235.20 0L229.68 0ZM281.82 0.54L281.82 0.54Q274.68 0.54 271.59-3.51L271.59-3.51L271.59-3.51Q268.50-7.56 268.50-15.24L268.50-15.24L268.50-33.66L268.50-33.66Q268.50-41.22 271.62-45.12L271.62-45.12L271.62-45.12Q274.74-49.02 281.82-49.02L281.82-49.02L281.82-49.02Q288.90-49.02 291.99-45.09L291.99-45.09L291.99-45.09Q295.08-41.16 295.08-33.66L295.08-33.66L295.08-15.18L295.08-15.18Q295.08-7.62 291.96-3.54L291.96-3.54L291.96-3.54Q288.84 0.54 281.82 0.54L281.82 0.54ZM281.82-4.80L281.82-4.80Q285.60-4.80 286.92-7.02L286.92-7.02L286.92-7.02Q288.24-9.24 288.24-13.74L288.24-13.74L288.24-35.04L288.24-35.04Q288.24-39.48 286.92-41.61L286.92-41.61L286.92-41.61Q285.60-43.74 281.82-43.74L281.82-43.74L281.82-43.74Q277.98-43.74 276.66-41.61L276.66-41.61L276.66-41.61Q275.34-39.48 275.34-35.04L275.34-35.04L275.34-13.74L275.34-13.74Q275.34-9.24 276.66-7.02L276.66-7.02L276.66-7.02Q277.98-4.80 281.82-4.80L281.82-4.80ZM307.08 0L307.08-43.56L298.86-43.56L298.86-48.60L321.84-48.60L321.84-43.56L313.86-43.56L313.86 0L307.08 0ZM338.94 0.54L338.94 0.54Q331.80 0.54 328.71-3.51L328.71-3.51L328.71-3.51Q325.62-7.56 325.62-15.24L325.62-15.24L325.62-33.66L325.62-33.66Q325.62-41.22 328.74-45.12L328.74-45.12L328.74-45.12Q331.86-49.02 338.94-49.02L338.94-49.02L338.94-49.02Q346.02-49.02 349.11-45.09L349.11-45.09L349.11-45.09Q352.20-41.16 352.20-33.66L352.20-33.66L352.20-15.18L352.20-15.18Q352.20-7.62 349.08-3.54L349.08-3.54L349.08-3.54Q345.96 0.54 338.94 0.54L338.94 0.54ZM338.94-4.80L338.94-4.80Q342.72-4.80 344.04-7.02L344.04-7.02L344.04-7.02Q345.36-9.24 345.36-13.74L345.36-13.74L345.36-35.04L345.36-35.04Q345.36-39.48 344.04-41.61L344.04-41.61L344.04-41.61Q342.72-43.74 338.94-43.74L338.94-43.74L338.94-43.74Q335.10-43.74 333.78-41.61L333.78-41.61L333.78-41.61Q332.46-39.48 332.46-35.04L332.46-35.04L332.46-13.74L332.46-13.74Q332.46-9.24 333.78-7.02L333.78-7.02L333.78-7.02Q335.10-4.80 338.94-4.80L338.94-4.80ZM358.86 0L358.86-48.60L368.64-48.60L368.64-48.60Q376.02-48.60 379.47-45.57L379.47-45.57L379.47-45.57Q382.92-42.54 382.92-35.70L382.92-35.70L382.92-35.70Q382.92-26.34 376.92-24.36L376.92-24.36L383.82 0L377.28 0L370.92-22.80L365.64-22.80L365.64 0L358.86 0ZM365.64-27.66L368.22-27.66L368.22-27.66Q372.60-27.66 374.49-29.40L374.49-29.40L374.49-29.40Q376.38-31.14 376.38-35.70L376.38-35.70L376.38-35.70Q376.38-38.70 375.72-40.41L375.72-40.41L375.72-40.41Q375.06-42.12 373.38-42.93L373.38-42.93L373.38-42.93Q371.70-43.74 368.64-43.74L368.64-43.74L365.64-43.74L365.64-27.66ZM400.38 1.14L400.38-3.72L400.38-3.72Q403.44-3.72 404.91-4.29L404.91-4.29L404.91-4.29Q406.38-4.86 406.92-6.39L406.92-6.39L406.92-6.39Q407.46-7.92 407.46-11.10L407.46-11.10L407.46-48.60L414.18-48.60L414.18-10.98L414.18-10.98Q414.18-6.60 413.28-3.99L413.28-3.99L413.28-3.99Q412.38-1.38 410.07-0.12L410.07-0.12L410.07-0.12Q407.76 1.14 403.62 1.14L403.62 1.14L400.38 1.14ZM434.22 0.54L434.22 0.54Q427.08 0.54 423.99-3.51L423.99-3.51L423.99-3.51Q420.90-7.56 420.90-15.24L420.90-15.24L420.90-33.66L420.90-33.66Q420.90-41.22 424.02-45.12L424.02-45.12L424.02-45.12Q427.14-49.02 434.22-49.02L434.22-49.02L434.22-49.02Q441.30-49.02 444.39-45.09L444.39-45.09L444.39-45.09Q447.48-41.16 447.48-33.66L447.48-33.66L447.48-15.18L447.48-15.18Q447.48-7.62 444.36-3.54L444.36-3.54L444.36-3.54Q441.24 0.54 434.22 0.54L434.22 0.54ZM434.22-4.80L434.22-4.80Q438.00-4.80 439.32-7.02L439.32-7.02L439.32-7.02Q440.64-9.24 440.64-13.74L440.64-13.74L440.64-35.04L440.64-35.04Q440.64-39.48 439.32-41.61L439.32-41.61L439.32-41.61Q438.00-43.74 434.22-43.74L434.22-43.74L434.22-43.74Q430.38-43.74 429.06-41.61L429.06-41.61L429.06-41.61Q427.74-39.48 427.74-35.04L427.74-35.04L427.74-13.74L427.74-13.74Q427.74-9.24 429.06-7.02L429.06-7.02L429.06-7.02Q430.38-4.80 434.22-4.80L434.22-4.80ZM465.72 0.60L465.72 0.60Q459.12 0.60 456.18-3.57L456.18-3.57L456.18-3.57Q453.24-7.74 453.24-15.96L453.24-15.96L453.24-32.22L453.24-32.22Q453.24-37.86 454.41-41.49L454.41-41.49L454.41-41.49Q455.58-45.12 458.43-47.07L458.43-47.07L458.43-47.07Q461.28-49.02 466.26-49.02L466.26-49.02L466.26-49.02Q472.98-49.02 475.95-45.60L475.95-45.60L475.95-45.60Q478.92-42.18 478.92-34.86L478.92-34.86L478.92-33.06L472.56-33.06L472.56-34.56L472.56-34.56Q472.56-38.04 472.14-39.93L472.14-39.93L472.14-39.93Q471.72-41.82 470.37-42.78L470.37-42.78L470.37-42.78Q469.02-43.74 466.38-43.74L466.38-43.74L466.38-43.74Q463.56-43.74 462.18-42.45L462.18-42.45L462.18-42.45Q460.80-41.16 460.41-39L460.41-39L460.41-39Q460.02-36.84 460.02-33.24L460.02-33.24L460.02-15.24L460.02-15.24Q460.02-9.66 461.37-7.23L461.37-7.23L461.37-7.23Q462.72-4.80 466.56-4.80L466.56-4.80L466.56-4.80Q470.34-4.80 471.75-7.44L471.75-7.44L471.75-7.44Q473.16-10.08 473.16-15.90L473.16-15.90L473.16-19.26L466.98-19.26L466.98-24.06L479.28-24.06L479.28 0L475.02 0L474.36-5.58L474.36-5.58Q472.08 0.60 465.72 0.60L465.72 0.60ZM482.88 1.14L482.88-3.72L482.88-3.72Q485.94-3.72 487.41-4.29L487.41-4.29L487.41-4.29Q488.88-4.86 489.42-6.39L489.42-6.39L489.42-6.39Q489.96-7.92 489.96-11.10L489.96-11.10L489.96-48.60L496.68-48.60L496.68-10.98L496.68-10.98Q496.68-6.60 495.78-3.99L495.78-3.99L495.78-3.99Q494.88-1.38 492.57-0.12L492.57-0.12L492.57-0.12Q490.26 1.14 486.12 1.14L486.12 1.14L482.88 1.14ZM501.66 0L511.98-48.60L518.52-48.60L528.90 0L522.48 0L520.26-12.24L510.36-12.24L508.02 0L501.66 0ZM511.26-17.10L519.36-17.10L515.28-39L511.26-17.10Z" fill="url(#editing-gradient-gradient)"></path></g></g><style>text {
  font-size: 64px;
  font-family: Arial Black;
  dominant-baseline: central;
  text-anchor: middle;
}</style></svg>